<svg xmlns="http://www.w3.org/2000/svg" viewBox="0 0 512 512"><path d="M465.2 285.054c0 61.607-40.062 146.747-88.5 193.258C355.207 498.967 332.07 512 310.042 512c-13.922 0-27.808-2.236-39.754-5.843-16.368-4.954-33.775-4.954-50.143 0-11.945 3.607-25.83 5.843-39.753 5.843-23.076 0-47.388-14.318-69.736-36.715-47.042-47.104-85.412-129.947-85.412-190.232 0-88.945 53.207-142.683 103.238-155.654 23.966-6.214 51.774-2.21 74.232 3.632 23.225 6.053 47.363 7.066 70.884 3.04a172.75 172.75 0 0 0 14.12-3.039c22.46-5.843 50.254-9.846 74.232-3.632 50.034 12.972 103.24 66.7 103.24 155.655z" fill="#f94848"/><path d="M376.687 478.307c-59.444 10.504-105.23 7.594-139.73-.76-56.335-13.64-98.243-61.156-105.227-118.696-17.493-144.1 76.667-186.066 76.667-186.066 27.598 12.54 58.63 5.843 58.63 5.843-19.803-19.8 6.572-42.558 6.572-42.558-23.52 4.027-47.66 3.014-70.884-3.04-22.46-5.843-50.266-9.846-74.232-3.632-50.033 12.972-103.24 66.7-103.24 155.655C25.245 373.987 108.742 512 180.392 512c13.922 0 27.808-2.236 39.754-5.843 16.368-4.954 33.774-4.954 50.143 0 11.946 3.607 25.83 5.843 39.754 5.843 22.026 0 45.164-13.033 66.647-33.688z" fill="#e23d3d"/><path d="M486.756 5.506s-12.354 86.116-77.42 111.182c-62.2 23.966-117.643-40.828-140.385-35.726-1.025.2-1.977.58-2.866 1.112-.037.012-.05.025-.05.025l.012-.05c.766-2.322 25.708-76.616 89.76-81.484 65.064-4.943 100.47 24.706 130.946 4.94z" fill="#c7f492"/><path d="M486.756 5.506s-39.53 48.18-95.122 48.18c-48.883 0-108.91 21.965-122.683 27.277l-2.866 1.112c-.037.012-.05.025-.05.025l.012-.05c.766-2.322 25.708-76.616 89.76-81.484 65.065-4.943 100.47 24.706 130.947 4.94z" fill="#a3e261"/><ellipse transform="matrix(-.0989 -.9951 .9951 -.0989 186.5864 663.8789)" cx="393.878" cy="247.459" rx="44.464" ry="28.771" fill="#fc8181"/><path d="M291.29 166.437c0 10.118-15.887 18.543-36.974 20.457-2.94.272-5.98.408-9.092.408a102.23 102.23 0 0 1-9.463-.432c-20.9-1.99-36.59-10.377-36.59-20.433h92.12z" fill="#e23d3d"/><path d="M280.368 81.012l-33.787 51.316c2.532 10.402 4.72 21.866 6.14 34.108.778 6.61 1.334 13.44 1.594 20.457-2.94.272-5.98.408-9.092.408a102.23 102.23 0 0 1-9.463-.432c-.272-7.017-.877-13.836-1.705-20.433-6.053-47.97-24.56-83.3-24.78-83.695-2.397-4.52-.68-10.13 3.842-12.526a9.25 9.25 0 0 1 12.526 3.83c.544 1.038 7.35 14.046 14.22 34.8l25.04-38.024a9.25 9.25 0 1 1 15.466 10.191z" fill="#b25719"/></svg>