<svg xmlns="http://www.w3.org/2000/svg" viewBox="0 0 512 512"><path d="M469.162 227.716H42.838c-4.466 0-8.084 3.62-8.084 8.084v250.833c0 4.465 3.618 8.084 8.084 8.084h426.325c4.466 0 8.084-3.62 8.084-8.084V235.8c-.001-4.466-3.62-8.085-8.085-8.085z" fill="#f7434c"/><path d="M469.162 227.716H42.838c-4.466 0-8.084 3.62-8.084 8.084v32.337h442.493V235.8c-.001-4.465-3.62-8.084-8.085-8.084z" fill="#db2e37"/><path d="M297.3 227.716h-82.598c-4.466 0-8.084 3.62-8.084 8.084v250.833c0 4.465 3.618 8.084 8.084 8.084H297.3c4.465 0 8.084-3.62 8.084-8.084V235.8c0-4.466-3.62-8.085-8.084-8.085z" fill="#ffdb57"/><path d="M297.3 227.716h-82.598c-4.466 0-8.084 3.62-8.084 8.084v32.164h98.766V235.8c0-4.465-3.62-8.084-8.084-8.084z" fill="#f5ba3d"/><path d="M453.413 78.378c-7.927-20.66-20.434-40.84-33.457-53.98-4.78-4.82-11.214-7.265-18.54-7.108-24.272.565-63.824 31.028-117.557 90.542a8.08 8.08 0 0 0-2.085 5.418V156c0 4.465 3.618 8.084 8.084 8.084h124.353c27.708 0 39.144-13.48 43.857-24.79 6.288-15.075 4.633-36.714-4.656-60.927z" fill="#ffdb57"/><path d="M458.04 92.464a8.07 8.07 0 0 0-1.058-2.336c-12.207-18.457-38.584-11.55-58.56-2.508-58.04 26.272-82.007 62.46-83 63.988a8.08 8.08 0 0 0 6.78 12.487h92.012c17.63 0 30.706-5.412 38.862-16.085 9.69-12.68 11.405-31.888 4.964-55.546z" fill="#ef9325"/><path d="M228.14 107.832C174.406 48.318 134.854 17.855 110.582 17.3c-7.344-.158-13.76 2.287-18.54 7.108-13.022 13.14-25.53 33.32-33.456 53.98-9.29 24.213-10.944 45.85-4.66 60.928 4.714 11.31 16.15 24.79 43.858 24.79h124.353c4.466 0 8.084-3.62 8.084-8.084V113.25a8.07 8.07 0 0 0-2.083-5.418z" fill="#ffdb57"/><path d="M196.578 151.608c-.992-1.527-24.96-37.717-83-63.988-19.98-9.043-46.355-15.946-58.562 2.507a8.1 8.1 0 0 0-1.057 2.337c-6.443 23.658-4.725 42.866 4.964 55.545 8.155 10.673 21.23 16.085 38.862 16.085h92.012a8.08 8.08 0 0 0 7.104-4.226c1.414-2.604 1.3-5.773-.324-8.26z" fill="#ef9325"/><path d="M289.86 97.175H222.14c-4.466 0-8.084 3.62-8.084 8.084v50.753c0 4.465 3.618 8.084 8.084 8.084h67.722c4.466 0 8.084-3.62 8.084-8.084V105.26c0-4.465-3.618-8.084-8.084-8.084z" fill="#f5ba3d"/><path d="M503.916 147.943H8.084c-4.466 0-8.084 3.62-8.084 8.084V235.8c0 4.465 3.618 8.084 8.084 8.084h495.832c4.466 0 8.084-3.62 8.084-8.084v-79.773c0-4.465-3.618-8.084-8.084-8.084z" fill="#f7434c"/><path d="M193.902 147.94h124.195v95.943H193.902z" fill="#ffdb57"/></svg>